<svg width="11" height="8" viewBox="0 0 11 8" fill="none" xmlns="http://www.w3.org/2000/svg">
<path d="M1.93933 0.58513C1.59066 0.156826 0.960791 0.0922732 0.532487 0.440948C0.104183 0.789622 0.0396304 1.41949 0.388305 1.84779L1.93933 0.58513ZM5.54199 6.59451L4.76648 7.22584C4.95638 7.45912 5.2412 7.59451 5.542 7.59451C5.8428 7.59451 6.12761 7.45911 6.31751 7.22583L5.54199 6.59451ZM10.6956 1.84778C11.0442 1.41947 10.9797 0.789608 10.5514 0.440939C10.1231 0.0922705 9.49319 0.156832 9.14452 0.585141L10.6956 1.84778ZM0.388305 1.84779L4.76648 7.22584L6.31751 5.96318L1.93933 0.58513L0.388305 1.84779ZM6.31751 7.22583L10.6956 1.84778L9.14452 0.585141L4.76647 5.96319L6.31751 7.22583Z" fill="#3A4D57"/>
</svg>
