<?xml version="1.0" encoding="UTF-8" standalone="no"?>
<svg
   xmlns:dc="http://purl.org/dc/elements/1.1/"
   xmlns:cc="http://creativecommons.org/ns#"
   xmlns:rdf="http://www.w3.org/1999/02/22-rdf-syntax-ns#"
   xmlns:svg="http://www.w3.org/2000/svg"
   xmlns="http://www.w3.org/2000/svg"
   xmlns:sodipodi="http://sodipodi.sourceforge.net/DTD/sodipodi-0.dtd"
   xmlns:inkscape="http://www.inkscape.org/namespaces/inkscape"
   width="19"
   height="14.47268"
   viewBox="0 0 19 14.47268"
   fill="none"
   version="1.1"
   id="svg857"
   sodipodi:docname="email.svg"
   inkscape:version="1.0.2-2 (e86c870879, 2021-01-15)">
  <metadata
     id="metadata861">
    <rdf:RDF>
      <cc:Work
         rdf:about="">
        <dc:format>image/svg+xml</dc:format>
        <dc:type
           rdf:resource="http://purl.org/dc/dcmitype/StillImage" />
        <dc:title></dc:title>
      </cc:Work>
    </rdf:RDF>
  </metadata>
  <sodipodi:namedview
     pagecolor="#ffffff"
     bordercolor="#666666"
     borderopacity="1"
     objecttolerance="10"
     gridtolerance="10"
     guidetolerance="10"
     inkscape:pageopacity="0"
     inkscape:pageshadow="2"
     inkscape:window-width="2492"
     inkscape:window-height="1058"
     id="namedview859"
     showgrid="false"
     fit-margin-top="0"
     fit-margin-left="0"
     fit-margin-right="0"
     fit-margin-bottom="0"
     inkscape:zoom="43.6"
     inkscape:cx="9.069336"
     inkscape:cy="7.22168"
     inkscape:window-x="-8"
     inkscape:window-y="-8"
     inkscape:window-maximized="1"
     inkscape:current-layer="svg857" />
  <g
     clip-path="url(#clip0)"
     id="g850"
     transform="translate(-0.930664,-2.77832)">
    <path
       d="M 18.2607,2.77832 H 2.60059 c -0.91965,0 -1.669926,0.74946 -1.669926,1.66992 V 15.5811 c 0,0.9173 0.746936,1.6699 1.669926,1.6699 H 18.2607 c 0.9174,0 1.67,-0.747 1.67,-1.6699 V 4.44824 c 0,-0.91734 -0.747,-1.66992 -1.67,-1.66992 z M 18.0301,3.8916 10.4661,11.4557 2.83656,3.8916 Z M 2.04395,15.3505 V 4.67346 l 5.36152,5.31555 z m 0.7872,0.7872 5.3649,-5.3649 1.87985,1.8637 c 0.2176,0.2158 0.5688,0.215 0.7855,-0.0017 l 1.8329,-1.8329 5.3359,5.3358 z M 18.8174,15.3505 13.4815,10.0146 18.8174,4.67877 Z"
       fill="#3f92d1"
       id="path848" />
  </g>
  <defs
     id="defs855">
    <clipPath
       id="clip0">
      <rect
         width="19"
         height="19"
         fill="#ffffff"
         transform="translate(0.930664,0.514648)"
         id="rect852"
         x="0"
         y="0" />
    </clipPath>
  </defs>
</svg>
