<svg width="294" height="153" viewBox="0 0 294 153" fill="none" xmlns="http://www.w3.org/2000/svg">
<path opacity="0.2" fill-rule="evenodd" clip-rule="evenodd" d="M3.06414 -124.259C1.19798 -180.652 -5.28039 -235.839 13.4541 -289.063C37.267 -356.713 53.9052 -451.916 123.901 -467.547C196.291 -483.713 243.338 -388.451 309.643 -355.205C358.714 -330.601 416.46 -332.226 460.126 -298.962C515.097 -257.087 584.944 -211.747 588.554 -142.738C592.163 -73.7507 527.535 -21.2789 477.125 25.9559C435.656 64.8132 381.435 79.8602 328.616 100.829C273.594 122.672 220.739 162.525 162.718 150.771C103.18 138.709 54.8143 91.7194 24.3163 39.1819C-3.95711 -9.52356 4.92674 -67.9725 3.06414 -124.259Z" fill="#FBCFD8"/>
</svg>
