<?xml version="1.0" encoding="UTF-8" standalone="no"?>
<svg
   xmlns:dc="http://purl.org/dc/elements/1.1/"
   xmlns:cc="http://creativecommons.org/ns#"
   xmlns:rdf="http://www.w3.org/1999/02/22-rdf-syntax-ns#"
   xmlns:svg="http://www.w3.org/2000/svg"
   xmlns="http://www.w3.org/2000/svg"
   xmlns:sodipodi="http://sodipodi.sourceforge.net/DTD/sodipodi-0.dtd"
   xmlns:inkscape="http://www.inkscape.org/namespaces/inkscape"
   width="446.81601"
   height="298.80634"
   viewBox="0 0 446.81601 298.80634"
   fill="none"
   version="1.1"
   id="svg1041"
   sodipodi:docname="section-2-img.svg"
   inkscape:version="1.0.2-2 (e86c870879, 2021-01-15)">
  <metadata
     id="metadata1045">
    <rdf:RDF>
      <cc:Work
         rdf:about="">
        <dc:format>image/svg+xml</dc:format>
        <dc:type
           rdf:resource="http://purl.org/dc/dcmitype/StillImage" />
        <dc:title></dc:title>
      </cc:Work>
    </rdf:RDF>
  </metadata>
  <sodipodi:namedview
     pagecolor="#ffffff"
     bordercolor="#666666"
     borderopacity="1"
     objecttolerance="10"
     gridtolerance="10"
     guidetolerance="10"
     inkscape:pageopacity="0"
     inkscape:pageshadow="2"
     inkscape:window-width="2492"
     inkscape:window-height="1058"
     id="namedview1043"
     showgrid="false"
     fit-margin-top="0"
     fit-margin-left="0"
     fit-margin-right="0"
     fit-margin-bottom="0"
     inkscape:zoom="1.8067061"
     inkscape:cx="241.68044"
     inkscape:cy="138.18315"
     inkscape:window-x="-8"
     inkscape:window-y="-8"
     inkscape:window-maximized="1"
     inkscape:current-layer="svg1041" />
  <g
     clip-path="url(#clip0)"
     id="g1032"
     transform="translate(-11.819565,-41.816845)">
    <path
       d="m 311.327,200.261 c 0.011,-7.237 0.141,-14.552 -0.377,-21.69 -0.577,-7.354 -1.761,-14.727 -0.593,-22.141 0.156,-0.785 -0.335,-1.392 -0.982,-1.725 -0.275,-0.157 -0.55,-0.313 -1.06,-0.313 -49.438,2.506 -98.916,4.187 -148.453,6.163 -1.02,0.001 -1.509,0.924 -1.351,1.669 -0.02,0.098 -0.039,0.196 -0.059,0.294 0.699,29.299 2.202,58.656 3.41,87.954 -1,-0.097 -2.195,0.787 -1.704,1.905 2.163,5.018 13.633,2.711 17.673,2.392 3.745,-0.376 7.412,-0.871 11.099,-1.463 6.431,-1.066 13.04,-0.975 19.512,-1.217 17.179,-0.764 34.397,-1.215 51.655,-1.861 17.042,-0.587 33.866,-2.645 50.868,-3.546 0.845,1.391 3.355,1.075 3.235,-0.886 -0.644,-15.218 -2.974,-30.16 -2.873,-45.535 z m -7.891,-42.353 c -3.802,2.711 -7.053,6.244 -11.268,8.465 -6.017,3.086 -12.054,6.269 -18.071,9.355 -6.135,3.164 -11.956,6.798 -17.698,10.55 -3.175,2.122 -6.252,4.263 -9.328,6.404 -2.861,2.082 -5.898,5.047 -9.132,6.443 -11.187,-7.833 -24.236,-13.996 -36.676,-19.631 -6.357,-2.895 -12.831,-5.203 -19.423,-7.431 -3.532,-1.212 -6.946,-2.503 -10.32,-3.99 -2.257,-0.958 -6.612,-2.64 -8.419,-4.835 46.713,-1.619 93.485,-3.024 140.335,-5.33 z m -85.487,90.464 c -11.197,0.424 -22.297,0.867 -33.415,2.429 -3.981,0.533 -7.942,0.969 -11.981,1.287 -1.138,0.08 -4.805,0.574 -7.296,0.283 -0.201,-5.138 -0.403,-10.276 -0.605,-15.414 0.392,0.078 0.745,-0.158 1.019,-0.511 4.855,-8.007 10.142,-15.622 14.722,-23.785 0.314,-0.55 -0.432,-0.902 -0.726,-0.451 -5.012,7.262 -10.496,14.328 -15.057,21.884 -0.061,-1.746 -0.141,-3.393 -0.202,-5.138 3.506,-4.299 6.678,-8.97 10.007,-13.406 2.37,-3.199 6.092,-6.537 7.441,-10.245 0.157,-0.275 -0.393,-0.588 -0.549,-0.314 -5.366,6.988 -11.556,13.506 -17.02,20.474 -0.12,-1.961 -0.142,-3.903 -0.262,-5.864 0.393,0.078 0.726,-0.059 1,-0.413 2.37,-3.199 4.739,-6.398 7.305,-9.558 0.529,-0.609 -0.316,-1.491 -0.943,-0.902 -2.605,2.847 -5.014,5.732 -7.443,8.716 -0.099,-1.549 -0.081,-3.177 -0.181,-4.726 4.799,-5.163 8.99,-10.855 13.338,-16.312 0.411,-0.53 -0.355,-1.294 -0.766,-0.764 -4.231,4.868 -8.462,9.737 -12.693,14.605 -0.565,-14.59 -1.228,-29.2 -1.989,-43.83 3.004,2.841 7.771,4.502 11.146,5.989 7.24,3.071 14.754,5.279 22.013,8.252 7.26,2.973 14.167,6.692 21.114,10.215 7.515,3.737 14.795,7.632 21.566,12.547 1.335,0.979 2.647,-0.493 2.411,-1.866 1.352,-0.648 2.547,-1.532 3.978,-2.573 3.096,-2.239 6.173,-4.38 9.25,-6.521 6.133,-4.184 12.502,-8.525 19.108,-12.004 6.586,-3.38 13.093,-6.878 19.679,-10.259 5.468,-2.888 9.425,-7.403 14.736,-10.527 0,0 0,0 0.02,-0.098 -0.544,5.295 -0.087,10.688 0.39,15.983 0.616,7.667 0.624,15.316 0.515,23.043 -0.14,15.062 1.915,29.846 2.814,44.809 -14.943,0.801 -29.885,2.621 -44.809,3.324 -15.708,0.547 -31.691,0.937 -47.635,1.641 z"
       fill="#f47892"
       id="path940" />
    <path
       d="m 262.03,188.724 c -7.467,4.224 -16.09,9.647 -21.673,16.183 -0.156,0.275 0.099,0.53 0.354,0.275 6.367,-6.381 14.697,-10.332 21.948,-15.518 0.588,-0.392 0.057,-1.314 -0.629,-0.94 z"
       fill="#f47892"
       id="path942" />
    <path
       d="m 256.879,195.142 c -2.293,0.768 -4.135,2.339 -6.134,3.674 -2.371,1.67 -4.429,3.3 -6.466,5.342 -0.137,0.177 0.02,0.412 0.255,0.255 4.018,-2.77 8.093,-6.344 12.719,-8.075 0.686,-0.373 0.293,-1.471 -0.374,-1.196 z"
       fill="#f47892"
       id="path944" />
    <path
       d="m 156.446,229.513 c 0.089,9.296 1.001,18.552 1.09,27.848 0.001,1.019 1.727,1.057 1.647,-0.081 -0.481,-9.373 -1.216,-18.492 -2.109,-27.846 0.078,-0.392 -0.628,-0.431 -0.628,0.079 z"
       fill="#f47892"
       id="path946" />
    <path
       d="m 188.932,255.856 c -9.235,1.324 -18.511,1.314 -27.787,2.324 -0.411,0.021 -0.43,0.629 -0.019,0.608 9.297,0.422 18.573,0.431 27.809,-0.893 1.255,-0.158 1.252,-2.198 -0.003,-2.039 z"
       fill="#f47892"
       id="path948" />
    <path
       d="m 194.639,255.359 c -0.51,0.001 -0.941,0.119 -1.392,0.335 -0.686,0.373 -0.058,1.314 0.609,1.039 0.333,-0.138 0.666,-0.276 1,-0.413 0.548,-0.197 0.293,-0.961 -0.217,-0.961 z"
       fill="#f47892"
       id="path950" />
    <path
       d="m 200.541,254.902 c -0.47,-0.196 -1,-0.097 -1.529,0.001 l -1.785,0.257 c -0.627,0.079 -0.607,1.001 0.001,1.02 0.51,-0.001 1.001,0.097 1.511,0.096 0.608,0.019 1.196,0.136 1.745,-0.06 0.666,-0.276 0.724,-1.08 0.057,-1.314 z"
       fill="#f47892"
       id="path952" />
    <path
       d="m 166.817,243.505 c 5.051,-7.968 9.552,-16.249 14.78,-24.08 0.313,-0.549 -0.511,-1.019 -0.922,-0.489 -5.306,7.713 -11.299,15.29 -15.428,23.747 -0.49,0.922 0.982,1.725 1.57,0.822 z"
       fill="#f47892"
       id="path954" />
    <path
       d="m 179.724,228.331 c -4.699,6.712 -9.124,13.581 -13.372,20.587 -0.744,1.178 1.198,2.176 1.844,0.979 4.052,-7.045 8.3,-14.051 12.823,-20.901 0.568,-0.804 -0.727,-1.47 -1.295,-0.665 z"
       fill="#f47892"
       id="path956" />
    <path
       d="m 183.867,232.621 c -0.998,2.453 -3.231,4.456 -4.778,6.595 -1.684,2.316 -3.29,4.75 -4.895,7.183 -0.725,1.08 1.061,2.352 1.766,1.371 1.802,-2.394 3.152,-5.083 4.679,-7.634 1.488,-2.355 3.525,-4.397 4.385,-7.183 0.372,-0.843 -0.805,-1.077 -1.157,-0.332 z"
       fill="#f47892"
       id="path958" />
    <path
       d="m 186.891,236.384 c -1.84,3.1 -3.955,6.044 -5.795,9.145 -0.607,1.001 1.042,1.94 1.648,0.939 1.664,-3.237 3.583,-6.22 5.325,-9.341 0.371,-0.843 -0.728,-1.47 -1.178,-0.743 z"
       fill="#f47892"
       id="path960" />
    <path
       d="m 190.757,238.478 c -0.822,1.569 -1.644,3.139 -2.564,4.69 -1.057,1.727 -2.389,3.297 -3.27,5.161 -0.332,0.648 0.551,1.333 1.06,0.823 2.665,-2.631 4.013,-6.849 5.598,-10.205 0.196,-0.47 -0.53,-0.921 -0.824,-0.469 z"
       fill="#f47892"
       id="path962" />
    <path
       d="m 194.365,238.278 c -0.703,3.021 -2.739,5.572 -4.109,8.359 -0.352,0.745 0.766,1.274 1.099,0.626 1.193,-2.923 3.151,-5.593 3.775,-8.731 0.098,-0.491 -0.667,-0.745 -0.765,-0.254 z"
       fill="#f47892"
       id="path964" />
    <path
       d="m 197.563,239.118 c -0.527,2.648 -2.387,4.827 -3.66,7.123 -0.489,0.922 0.885,1.705 1.374,0.782 1.311,-2.492 3.093,-4.788 3.541,-7.554 0.176,-0.883 -1.08,-1.234 -1.255,-0.351 z"
       fill="#f47892"
       id="path966" />
    <path
       d="m 200.35,240.997 c -0.195,0.981 -0.488,1.942 -0.86,2.786 -0.372,0.844 0.845,1.392 1.197,0.646 0.411,-1.04 0.723,-2.099 0.84,-3.198 0.038,-0.706 -1.021,-1.018 -1.177,-0.234 z"
       fill="#f47892"
       id="path968" />
    <path
       d="m 171.714,166.583 c 5.395,1.582 11.085,3.733 16.284,5.787 6.808,2.679 13.851,4.692 20.659,7.371 0.942,0.391 1.568,-1.218 0.626,-1.609 -6.337,-2.484 -12.851,-4.595 -19.227,-6.882 -3.335,-1.173 -6.631,-2.542 -10.123,-3.441 -2.609,-0.723 -5.396,-2.092 -8.161,-2.03 -0.412,0.02 -0.431,0.628 -0.058,0.804 z"
       fill="#f47892"
       id="path970" />
    <path
       d="m 212.444,181.718 c 0.256,0.254 0.628,0.43 1.06,0.312 0.215,-0.059 0.333,-0.137 0.568,-0.295 0.49,-0.412 0.313,-1.059 -0.021,-1.431 -0.412,-0.49 -0.942,-0.391 -1.471,-0.293 -0.412,0.02 -0.725,0.57 -0.705,0.982 0.137,0.333 0.295,0.568 0.569,0.725 z"
       fill="#f47892"
       id="path972" />
    <path
       d="m 307.215,224.525 c -0.183,-5.746 -0.679,-11.453 -1.274,-17.179 -0.039,-0.314 -0.451,-0.293 -0.51,0.001 -0.013,5.707 0.072,11.433 0.156,17.16 0.104,5.118 -0.498,10.708 0.233,15.748 0.218,1.47 2.335,1.076 1.902,-0.336 -1.299,-4.744 -0.364,-10.472 -0.507,-15.394 z"
       fill="#f47892"
       id="path974" />
    <path
       d="m 302.364,218.156 c -0.094,4.06 -0.07,8.041 0.033,12.14 0.121,3.49 -0.247,7.394 0.521,10.707 0.139,0.843 1.609,0.626 1.471,-0.217 -0.553,-3.373 -0.204,-7.178 -0.345,-10.571 -0.22,-4.02 -0.342,-8.02 -0.346,-12.1 0.077,-0.902 -1.256,-0.861 -1.334,0.041 z"
       fill="#f47892"
       id="path976" />
    <path
       d="m 298.702,223.24 c 0,-0.51 -0.804,-0.568 -0.823,0.04 0.082,3.177 0.065,6.334 0.147,9.511 0.062,2.255 -0.485,4.492 0.419,6.609 0.335,0.882 1.629,0.528 1.412,-0.433 -1.045,-5 -0.737,-10.649 -1.155,-15.727 z"
       fill="#f47892"
       id="path978" />
    <path
       d="m 294.238,230.305 c 0.062,2.765 -0.248,5.864 0.324,8.628 0.197,1.059 1.608,0.626 1.686,-0.276 0.232,-2.707 -0.202,-5.648 -0.382,-8.335 -0.079,-1.137 -1.727,-1.057 -1.628,-0.017 z"
       fill="#f47892"
       id="path980" />
    <path
       d="m 313.017,149.72 c -0.137,-0.334 -0.393,-0.588 -0.687,-0.647 -0.157,-0.235 -0.432,-0.392 -0.844,-0.372 -5.373,0.359 -10.785,0.914 -16.178,1.371 -5.392,0.457 -10.825,0.091 -16.04,1.704 -0.647,0.178 -0.332,1.158 0.295,1.079 5.118,-1.124 10.609,-0.541 15.767,-0.841 5.275,-0.379 10.57,-0.855 15.825,-1.135 0.691,3.706 0.578,7.863 0.954,11.609 0.476,4.275 1.049,8.569 1.524,12.844 0.099,0.529 0.825,0.469 0.824,-0.04 0.054,-4.884 -0.089,-9.806 -0.526,-14.787 -0.141,-3.393 0.266,-7.492 -0.914,-10.785 z"
       fill="#f47892"
       id="path982" />
    <path
       d="m 317.21,146.067 c 0.077,-0.902 -0.982,-1.215 -1.668,-0.841 -0.098,-0.02 -0.098,-0.02 -0.196,-0.039 -8.55,0.441 -17.238,0.548 -25.827,1.185 -0.726,0.06 -0.607,1.001 10e-4,1.02 8.649,0.598 17.023,0.02 25.671,-0.401 1.067,7.451 1.487,15.08 2.221,22.669 0.001,0.51 0.726,0.45 0.824,-0.04 0.011,-7.747 -1.469,-15.688 -1.026,-23.553 z"
       fill="#f47892"
       id="path984" />
    <path
       d="m 442.509,200.451 c -6.394,-19.114 -19.984,-36.397 -39.036,-44.162 -15.853,-6.415 -36.824,-11.707 -53.388,-4.806 -0.32,-5.569 -0.012,-11.217 -0.842,-16.786 -0.889,-6.295 -2.975,-12.725 -5.041,-18.743 -4.131,-12.038 -11.027,-22.9929 -20.058,-31.9259 -18.003,-17.6505 -45.449,-26.2693 -69.811,-30.4004 -26.226,-4.5017 -52.81,4.0779 -73.797,19.8881 -10.19,7.6597 -18.278,17.5724 -25.268,28.1112 -6.442,9.833 -12.823,20.901 -16.046,32.495 -14.654,-3.22 -29.857,-6.754 -44.957,-6.188 1.9577,-3.179 3.7388,-6.495 4.6761,-10.183 0.078,-0.393 -0.3929,-0.588 -0.569,-0.216 -1.761,3.729 -3.9733,7.163 -6.3819,10.558 -0.2156,0.06 -0.5099,0.001 -0.7255,0.06 -2.3924,0.238 -4.7847,0.476 -7.2161,0.91 1.7621,-2.708 3.6223,-5.397 5.561,-7.968 0.9791,-1.335 -0.827,-3.02 -1.9042,-1.704 -2.6047,3.356 -5.0327,6.85 -7.4607,10.343 -9.9997,2.09 -19.6054,5.787 -28.2286,11.209 -23.4198,14.715 -37.8008,45.501 -35.4765,72.779 1.0927,12.962 5.64,28.548 15.103,37.873 10.3663,10.422 25.3384,18.191 38.6415,24.1 7.0244,3.13 14.2834,5.593 21.6789,7.37 8.651,2.128 17.732,2.608 26.558,3.854 17.438,2.55 34.739,5.786 52.176,8.337 35.66,5.256 70.967,10.748 106.041,18.947 17.243,4.04 34.604,7.493 51.847,11.534 15.968,3.787 30.756,4.79 46.912,1.478 13.902,-2.741 27.525,-8.698 38.518,-17.83 10.6,-8.699 17.98,-20.69 23.223,-33.208 10.249,-24.879 13.948,-49.632 5.271,-75.726 z m -21.022,90.844 c -8.107,12.051 -19.884,20.006 -33.333,25.081 -4.959,1.868 -10.037,3.305 -15.115,4.233 5.839,-4.243 10.598,-10.23 15.515,-15.471 1.038,-1.119 -0.689,-2.686 -1.727,-1.567 -5.113,5.202 -10.285,10.189 -15.889,14.785 -0.98,0.824 -0.724,2.099 -0.017,2.647 -6.216,1.007 -12.628,1.465 -18.983,1.119 4.251,-3.946 7.933,-8.618 12.028,-12.8 3.976,-4.103 7.855,-8.226 10.85,-13.034 0.451,-0.726 -0.746,-1.372 -1.197,-0.646 -6.676,9.99 -17.28,16.14 -24.722,25.366 -0.255,0.255 -0.313,0.549 -0.372,0.843 -3.51,-0.29 -6.884,-0.757 -10.317,-1.44 -8.239,-1.638 -16.536,-3.492 -24.736,-5.327 5.112,-5.712 10.342,-11.503 15.455,-17.216 3.016,-3.376 5.876,-6.988 8.539,-10.639 1.958,-2.669 4.231,-4.868 5.286,-8.125 0.332,-1.157 -1.571,-1.842 -2.001,-0.704 -1.271,3.316 -4.23,5.888 -6.325,8.734 -2.84,3.514 -5.856,6.891 -8.971,10.247 -5.034,5.321 -11.893,10.584 -15.906,16.923 -2.236,-0.547 -4.492,-0.995 -6.631,-1.522 1.881,-2.277 3.584,-4.692 5.484,-7.067 3.055,-4.082 6.817,-7.616 10.303,-11.307 7.503,-7.99 14.946,-16.196 22.017,-24.578 1.058,-1.217 -0.768,-2.803 -1.806,-1.684 -7.247,8.244 -14.75,16.234 -22.449,24.185 -3.585,3.672 -7.248,7.225 -10.46,11.073 -2.292,2.807 -4.387,5.653 -6.757,8.342 -2.334,-0.566 -4.669,-1.132 -7.023,-1.6 8.499,-11.463 17.744,-22.063 27.892,-32.076 1.254,-1.178 -0.748,-2.902 -1.884,-1.802 -10.678,10.111 -21.374,20.831 -29.794,32.921 -0.49,-0.098 -0.981,-0.195 -1.55,-0.41 -2.726,-0.645 -5.355,-1.269 -8.101,-1.815 0.744,-0.668 1.391,-1.355 2.018,-1.944 2.86,-2.592 5.563,-5.419 8.169,-8.266 5.406,-5.654 10.538,-11.464 16.181,-16.765 1.254,-1.179 -0.729,-3 -1.983,-1.822 -5.329,4.752 -10.325,9.876 -15.301,14.902 -4.466,4.515 -9.227,8.462 -13.851,12.743 -3.021,-0.703 -5.963,-1.288 -9.004,-1.893 4.351,-2.397 8.269,-6.716 11.54,-10.348 4.172,-4.574 8.816,-8.442 11.85,-13.956 0.783,-1.374 -1.356,-2.411 -2.119,-1.136 -2.976,5.22 -7.6,8.991 -11.792,13.153 -3.683,3.652 -7.602,6.951 -11.776,9.995 -0.607,0.491 -0.822,1.06 -0.606,1.511 -2.354,-0.468 -4.806,-0.956 -7.16,-1.424 2.9,-2.278 5.603,-5.105 8.327,-7.52 4.33,-3.829 8.483,-7.795 12.558,-11.879 1.018,-1.021 -0.63,-2.47 -1.649,-1.449 -4.134,3.868 -8.444,7.598 -12.735,11.231 -3.429,2.887 -7.525,5.539 -10.62,8.798 -2.747,-0.546 -5.493,-1.092 -8.239,-1.639 2.803,-1.277 5.232,-3.751 7.466,-5.754 4.114,-3.77 7.737,-8.147 13.01,-10.565 1.235,-0.57 0.645,-2.727 -0.708,-2.078 -4.215,1.711 -7.526,4.519 -10.876,7.523 -1.979,1.748 -3.86,3.515 -5.917,5.145 -2.058,1.63 -4.371,2.495 -6.586,3.89 -0.352,0.236 -0.528,0.608 -0.606,1.001 -18.969,-3.569 -38.035,-6.646 -57.257,-9.449 -17.536,-2.57 -35.13,-5.355 -52.607,-8.219 -17.478,-2.864 -34.521,-3.807 -51.1589,-10.378 -14.3619,-5.711 -29.2755,-13.775 -40.8773,-24.136 -5.5359,-4.976 -8.2314,-12.955 -10.4354,-19.816 -2.5188,-7.842 -3.5475,-16 -3.2426,-24.198 0.6303,-15.474 8.0259,-31.642 17.6226,-43.498 9.0875,-11.345 21.9058,-18.38 35.6492,-22.376 -0.4308,0.628 -0.744,1.177 -1.1747,1.805 -1.0377,1.629 1.6311,3.077 2.6687,1.449 0.9006,-1.453 1.6835,-2.826 2.5841,-4.279 2.5685,-0.61 5.196,-1.005 7.8235,-1.401 -1.9973,2.866 -4.014,5.829 -5.5794,9.087 -0.8415,1.668 1.8663,2.92 2.4921,1.311 1.4668,-3.787 3.6005,-7.339 5.8915,-10.656 15.8646,-1.331 32.0476,1.887 47.7006,4.694 -0.215,1.079 -0.429,2.158 -0.546,3.257 -0.311,2.079 2.612,2.762 3.218,0.741 3.751,-12.712 9.995,-24.113 16.906,-35.28 6.793,-11.0877 15.391,-21.001 25.64,-28.9549 20.241,-15.6525 46.199,-22.6233 71.405,-18.1205 22.44,4.0548 46.003,12.717 63.122,28.1523 8.991,8.1095 15.141,18.7131 19.213,30.0241 2.163,6.038 4.034,12.527 4.903,18.92 0.949,6.51 -0.044,13.042 1.002,19.571 0.237,1.373 1.081,2.254 1.984,2.842 1.119,1.038 2.688,1.35 4.296,0.446 11.347,-6.817 25.725,-4.264 37.849,-1.139 12.417,3.183 23.386,8.015 32.456,17.262 19.005,19.277 24.308,44.394 18.943,69.836 -3.415,16.144 -8.144,31.721 -17.385,45.38 z"
       fill="#3f92d1"
       id="path986" />
    <path
       d="m 68.4553,217.215 c -0.5923,-3.687 -2.8704,-6.587 -5.9711,-8.427 -1.0599,-0.822 -2.4726,-1.409 -3.9243,-1.8 -1.2555,-0.351 -2.4324,-0.585 -3.6289,-0.721 -5.5114,-0.485 -10.0788,1.462 -13.272,4.701 -1.6066,1.414 -2.8008,3.318 -3.6612,5.594 -1.858,4.728 -1.6362,10.278 1.2326,15.335 0.2357,0.352 0.491,0.607 0.8833,0.685 0.4319,0.392 0.8637,0.783 1.4132,1.097 0.8833,0.685 2.0212,1.115 3.1592,1.546 5.6512,2.857 13.3973,2.358 19.0993,-2.218 3.7426,-2.926 5.3024,-11.282 4.6699,-15.792 z m -5.5766,11.636 c -2.0736,4.787 -10.2705,5.502 -14.586,4.644 -5.9042,-1.072 -8.2046,-6.424 -8.3673,-11.758 -0.0012,-1.02 0.1153,-2.118 0.2909,-3.001 l 0.0195,-0.098 c 0.0585,-0.294 0.0975,-0.49 0.2541,-0.765 0.0195,-0.098 0.0585,-0.294 0.1761,-0.373 0.8994,-2.472 2.6036,-4.376 4.7201,-5.791 2.2931,-1.277 4.9597,-1.868 7.4696,-2.185 5.3336,-0.672 8.5335,2.207 11.5383,6.067 2.5924,3.371 -0.0285,9.885 -1.5153,13.26 z"
       fill="#3f92d1"
       id="path988" />
    <path
       d="m 73.4975,236.978 c -0.6281,-0.431 -1.2756,-0.764 -1.9622,-0.9 -1.1574,-0.332 -2.3929,-0.272 -3.5102,0.219 l -0.1176,0.079 c -2.5094,0.826 -4.802,2.614 -5.702,4.576 -1.9956,4.395 0.8744,10.471 5.5236,11.702 5.6301,1.425 9.7043,-3.168 10.0515,-8.503 0.1148,-2.628 -1.7319,-5.646 -4.2831,-7.173 z m -5.3582,14.126 c -3.7861,-0.957 -5.556,-5.387 -4.7557,-8.898 0.4882,-1.943 2.5651,-3.671 4.7413,-4.359 0.098,0.019 0.1961,0.039 0.3137,-0.04 0.2157,-0.059 0.4313,-0.118 0.647,-0.177 0.3137,-0.04 0.6275,-0.079 0.9412,-0.119 3.1575,0.016 6.0642,3.857 6.087,6.818 0.2792,4.236 -3.7961,7.81 -7.9745,6.775 z"
       fill="#3f92d1"
       id="path990" />
    <path
       d="m 58.9506,205.537 c 0.8438,0.371 1.5091,-0.924 0.6654,-1.295 -9.4964,-4.03 -22.9032,2.888 -25.285,12.814 -0.0585,0.294 0.3338,0.372 0.4904,0.097 2.9129,-8.495 15.3785,-15.294 24.1292,-11.616 z"
       fill="#3f92d1"
       id="path992" />
    <path
       d="m 36.2842,209.797 c 0.8409,-2.177 4.6437,-3.868 6.5842,-4.91 3.1162,-1.827 6.2536,-2.223 9.8425,-2.325 0.8236,-0.04 0.9791,-1.334 0.0769,-1.412 -3.5108,-0.29 -6.7263,0.498 -9.8035,2.129 -2.3913,1.258 -6.6053,3.478 -7.3671,6.284 -0.1956,0.471 0.4714,0.705 0.667,0.234 z"
       fill="#3f92d1"
       id="path994" />
    <path
       d="m 37.8084,204.697 c 2.272,-2.709 6.9196,-3.008 10.1941,-3.581 0.7451,-0.157 0.744,-1.177 -0.0601,-1.235 -2.1377,-0.017 -4.3529,0.867 -6.3329,1.595 -1.6467,0.59 -3.3324,1.377 -4.233,2.829 -0.1761,0.373 0.2753,0.666 0.4319,0.392 z"
       fill="#3f92d1"
       id="path996" />
    <path
       d="M 89.5333,285.028 C 71.8768,279.478 52.9826,271.948 37.948,260.903 30.4701,255.44 24.1083,248.465 20.4315,239.781 c -3.6178,-8.468 -5.2751,-17.566 -8.1478,-26.192 -0.1376,-0.333 -0.5885,-0.117 -0.4313,0.118 2.1482,9.706 3.747,19.098 7.5225,28.311 3.2444,7.782 9.3504,13.993 15.7495,19.242 7.3609,6.052 15.857,9.984 24.3141,14.113 9.6737,4.677 19.4248,8.451 29.7047,11.617 1.3146,0.567 1.7242,-1.492 0.3901,-1.962 z"
       fill="#3f92d1"
       id="path998" />
    <path
       d="m 49.5131,273.501 c -8.1044,-4.364 -15.7774,-8.847 -21.904,-15.979 -2.8867,-3.429 -5.7928,-6.76 -8.0915,-10.582 -1.9845,-3.351 -2.8131,-7.9 -5.1893,-10.819 -0.4124,-0.49 -1.1179,-0.019 -0.8231,0.55 1.5526,2.959 1.8117,6.783 3.4428,9.86 2.2207,4.215 4.9703,7.82 8.0141,11.484 6.598,7.838 14.5463,12.987 23.3378,17.998 1.3932,0.685 2.6849,-1.709 1.2132,-2.512 z"
       fill="#3f92d1"
       id="path1000" />
    <path
       d="m 166.467,102.223 c 0.411,-0.53 -0.57,-1.235 -0.982,-0.705 -5.111,6.732 -9.849,14.151 -13.783,21.627 -4.09,7.751 -6.376,16.167 -8.838,24.446 -0.41,1.55 1.944,2.018 2.452,0.487 2.639,-8.141 4.748,-16.184 8.427,-23.915 3.541,-7.555 7.887,-15.051 12.724,-21.94 z"
       fill="#3f92d1"
       id="path1002" />
    <path
       d="m 163.418,111.914 c -8.262,12.835 -13.11,27.471 -15.898,42.516 -0.293,1.471 2.042,2.038 2.354,0.468 3.239,-14.751 7.126,-29.17 14.839,-42.318 0.372,-0.844 -0.826,-1.49 -1.295,-0.666 z"
       fill="#3f92d1"
       id="path1004" />
    <path
       d="m 217.599,52.746 c 14.292,-4.1929 29.315,-3.8562 44.007,-1.8522 8.238,1.1285 16.457,3.3748 24.227,6.3473 6.337,2.4838 12.166,5.9879 18.366,8.6483 1.314,0.5674 2.41,-1.3558 1.017,-2.0407 -6.828,-3.0912 -13.362,-6.6337 -20.386,-9.254 -7.299,-2.7769 -15.106,-4.5335 -22.854,-5.5645 -14.868,-2.141 -30.616,-1.9081 -44.731,2.9317 -0.529,0.0986 -0.195,0.9808 0.354,0.7841 z"
       fill="#3f92d1"
       id="path1006" />
    <path
       d="m 228.69,44.6539 c 11.137,-2.1694 23.357,-1.0649 34.537,0.1389 11.768,1.3207 21.736,6.0559 32.605,10.3586 1.511,0.6063 2.666,-1.611 1.155,-2.2174 -11.929,-4.6153 -22.446,-9.1537 -35.449,-10.4143 -10.925,-0.9491 -22.477,-1.3091 -33.103,1.3696 -0.53,0.0987 -0.274,0.8633 0.255,0.7646 z"
       fill="#3f92d1"
       id="path1008" />
    <path
       d="m 347.487,286.571 c -6.035,5.733 -11.636,12.368 -16.885,18.767 -2.292,2.807 -6.407,6.067 -7.874,9.344 -0.333,0.648 -0.037,1.726 0.865,1.803 3.178,0.428 6.152,-5.811 7.699,-7.951 5.346,-7.399 11.477,-14.133 17.156,-21.16 0.314,-0.549 -0.452,-1.313 -0.961,-0.803 z"
       fill="#3f92d1"
       id="path1010" />
    <path
       d="m 354.728,290.662 c -4.955,6.458 -10.675,12.151 -16.415,17.943 -2.155,2.12 -6.31,5.067 -7.032,8.186 -0.156,0.784 0.375,1.705 1.179,1.763 0.098,0.02 0.098,0.02 0.196,0.039 0.902,0.078 1.51,-0.413 1.646,-1.1 1.919,-2.983 4.916,-5.751 7.267,-8.342 4.995,-5.634 10.166,-11.131 14.631,-17.177 0.607,-1 -0.669,-2.274 -1.472,-1.312 z"
       fill="#3f92d1"
       id="path1012" />
    <path
       d="m 363.418,293.104 c -4.656,10.085 -16.124,14.942 -22.017,24.068 -0.744,1.177 0.67,2.784 1.983,2.331 3.647,-1.416 6.838,-6.695 9.443,-9.541 4.583,-5.104 10.09,-9.209 12.711,-15.723 0.586,-1.413 -1.435,-2.528 -2.12,-1.135 z"
       fill="#3f92d1"
       id="path1014" />
    <path
       d="m 378.663,298.991 c -3.094,3.768 -6.425,7.184 -10.03,10.444 -3.487,3.181 -7.896,6.382 -10.166,10.621 -0.803,1.472 1.101,2.666 2.237,1.566 3.409,-3.298 6.425,-7.185 9.755,-10.601 3.448,-3.494 6.915,-7.087 9.126,-11.541 0.294,-0.452 -0.511,-1.019 -0.922,-0.489 z"
       fill="#3f92d1"
       id="path1016" />
    <path
       d="m 245.853,281.348 c -2.508,1.846 -4.918,3.712 -7.171,5.812 -2.841,2.494 -5.976,4.929 -8.464,7.697 -0.921,1.041 0.533,2.961 1.65,1.96 2.429,-1.964 4.368,-4.535 6.543,-6.754 2.566,-2.65 5.309,-5.163 8.228,-7.54 0.627,-0.589 -0.061,-1.745 -0.786,-1.175 z"
       fill="#3f92d1"
       id="path1018" />
    <path
       d="m 232.461,283.068 c -1.98,1.238 -3.959,2.476 -6.017,3.596 -1.979,1.238 -4.116,2.24 -5.938,3.713 -1.352,1.158 -0.115,3.138 1.473,2.332 2.058,-1.12 3.9,-2.691 5.703,-4.066 1.9,-1.355 3.821,-2.808 5.624,-4.183 1.038,-0.609 0.095,-2.02 -0.845,-1.392 z"
       fill="#3f92d1"
       id="path1020" />
    <path
       d="m 340.476,170.066 c -0.588,0.393 -0.038,1.216 0.531,0.921 32.379,-17.215 83.818,-1.072 87.784,38.971 0.239,2.902 4.769,2.682 4.53,-0.221 -4.42,-42.886 -58.9,-60.143 -92.845,-39.671 z"
       fill="#3f92d1"
       id="path1022" />
    <path
       d="m 400.947,177.708 c -6.025,-3.544 -13.145,-5.164 -19.932,-6.411 -7.278,-1.346 -15.277,0.428 -22.691,0.279 -0.823,0.041 -0.979,1.335 -0.096,1.511 5.61,1.013 11.258,0.811 16.965,0.824 7.119,0.091 14.515,2.377 20.892,5.175 12.655,5.575 18.865,16.394 22.448,29.138 0.728,2.49 4.237,1.25 3.705,-1.201 -2.661,-12.764 -10.282,-22.64 -21.291,-29.315 z"
       fill="#3f92d1"
       id="path1024" />
    <path
       d="m 456.267,335.325 c -1.747,-1.469 -3.612,-2.86 -5.359,-4.329 2.312,-1.885 4.546,-3.888 6.838,-5.675 2.156,-1.61 -0.005,-5.099 -2.259,-3.508 -2.822,1.886 -5.31,4.144 -7.818,6.5 -0.353,-0.274 -0.706,-0.548 -1.06,-0.822 -2.1,-1.744 -6.203,-5.72 -9.203,-4.991 -0.529,0.098 -0.901,0.942 -0.489,1.432 2.121,2.665 5.046,4.878 7.539,7.209 0.098,0.019 0.177,0.137 0.177,0.137 -2.41,2.375 -4.82,4.751 -7.387,6.892 -1.234,1.08 -0.016,3.157 1.395,2.214 3.038,-1.945 5.82,-4.144 8.622,-6.442 1.964,1.92 4.006,3.957 6.223,5.112 2.433,1.096 4.901,-2.084 2.781,-3.729 z"
       fill="#3f92d1"
       id="path1026" />
    <path
       d="m 121.158,94.8169 c -1.521,-1.2789 -3.144,-2.4893 -4.665,-3.7682 2.013,-1.6413 3.957,-3.3849 5.953,-4.9408 1.877,-1.402 -0.005,-4.4391 -1.967,-3.054 -2.456,1.6418 -4.623,3.6076 -6.806,5.6588 -0.307,-0.2387 -0.615,-0.4774 -0.923,-0.7161 -1.828,-1.5175 -5.4,-4.9796 -8.012,-4.345 -0.461,0.0858 -0.784,0.8204 -0.425,1.2468 1.846,2.32 4.392,4.2466 6.563,6.276 0.085,0.0169 0.154,0.1193 0.154,0.1193 -2.098,2.0682 -4.196,4.1364 -6.431,5.9999 -1.074,0.9402 -0.014,2.7484 1.215,1.928 2.644,-1.6932 5.067,-3.6081 7.506,-5.6084 1.709,1.6714 3.487,3.4451 5.417,4.4503 2.118,0.9539 4.267,-1.8144 2.421,-3.2466 z"
       fill="#3f92d1"
       id="path1028" />
    <path
       d="m 415.08,116.896 c -0.885,-2.215 -1.476,-4.372 -1.949,-6.607 0.843,-0.138 1.686,-0.276 2.549,-0.513 1.686,-0.276 3.392,-0.65 4.98,-0.946 1.392,-0.335 2.372,-1.16 2.527,-2.455 0.293,-1.471 -0.532,-2.96 -1.808,-3.724 -0.628,-0.431 -1.413,-0.587 -2.256,-0.448 -1.451,0.119 -2.843,0.454 -4.765,0.887 -0.745,0.158 -1.49,0.316 -2.235,0.473 l -0.745,0.158 c -0.413,-1.509 -0.866,-2.823 -1.338,-4.0384 -0.079,-0.6275 -0.04,-1.3335 -0.12,-1.961 -0.001,-1.5297 -0.689,-2.686 -1.965,-3.4495 -1.373,-0.783 -3.295,-0.8593 -4.589,0.005 -1.156,0.6877 -1.802,1.8847 -1.702,3.4339 0.12,2.471 0.515,5.098 1.205,7.784 -0.745,0.158 -1.392,0.335 -2.118,0.395 -1.686,0.276 -3.098,0.709 -4.333,1.28 -0.431,0.118 -0.882,0.334 -1.215,0.472 -0.451,0.216 -0.921,0.53 -1.195,0.883 -0.255,0.256 -0.412,0.53 -0.47,0.825 -0.607,1.51 0.141,3.392 1.691,4.312 1.001,0.607 2.119,0.626 3.236,0.134 1.921,-0.943 4.156,-1.417 6.372,-1.792 0.964,2.843 2.242,5.646 3.539,8.351 0.374,0.686 0.864,1.294 1.414,1.607 1.177,0.744 2.844,0.565 4.079,-0.515 1.352,-1.158 1.82,-3.002 1.211,-4.551 z m -2.017,3.474 c -0.744,0.667 -1.803,0.864 -2.529,0.414 -0.373,-0.176 -0.707,-0.548 -0.923,-0.999 -1.474,-2.842 -2.713,-5.841 -3.657,-8.782 l -0.295,-0.568 -0.529,0.098 c -2.432,0.434 -4.981,0.947 -7.235,2.028 -0.804,0.452 -1.471,0.217 -1.922,-0.076 -0.903,-0.588 -1.473,-1.823 -1.101,-2.666 l 0.058,-0.294 0.118,-0.079 c 0.157,-0.275 0.392,-0.432 0.725,-0.57 0.333,-0.137 0.784,-0.353 1.215,-0.472 1.118,-0.491 2.412,-0.846 4.117,-1.22 0.961,-0.217 1.804,-0.355 2.765,-0.572 l 0.647,-0.177 -0.177,-0.647 c -0.65,-2.882 -1.124,-5.627 -1.323,-8.2158 -0.06,-1.2354 0.567,-1.8245 1.037,-2.1388 0.921,-0.5305 2.255,-0.5712 3.256,0.0357 0.549,0.3132 1.236,0.9596 1.277,2.2932 -0.039,0.706 0.021,1.4316 0.081,2.1572 l 0.059,0.2155 c 0.55,1.333 0.983,2.745 1.436,4.568 l 0.178,0.647 2.019,-0.414 c 0.745,-0.158 1.49,-0.315 2.235,-0.473 1.824,-0.453 3.294,-0.67 4.667,-0.907 1.569,-0.198 2.806,1.271 2.631,2.664 -0.098,0.49 -0.43,1.138 -1.509,1.433 -1.706,0.375 -3.294,0.671 -4.98,0.947 -1.059,0.197 -2.216,0.375 -3.275,0.572 l -0.647,0.178 0.178,0.647 c 0.571,2.254 1.26,4.94 2.204,7.371 0.453,1.314 -0.076,2.432 -0.801,3.002 z"
       fill="#3f92d1"
       id="path1030" />
  </g>
  <path
     d="m 134.72644,287.71315 c -1.571,-1.842 -2.906,-3.841 -4.144,-5.821 0.804,-0.451 1.607,-0.903 2.411,-1.355 1.509,-0.924 3.096,-1.73 4.606,-2.653 1.273,-0.766 1.919,-1.963 1.682,-3.336 -0.217,-1.47 -1.493,-2.744 -3.062,-3.056 -0.785,-0.156 -1.628,-0.018 -2.412,0.336 -1.353,0.649 -2.725,1.396 -4.371,2.496 -0.686,0.373 -1.391,0.844 -2.077,1.218 l -0.686,0.373 c -0.943,-1.411 -1.847,-2.508 -2.671,-3.488 -0.276,-0.666 -0.57,-1.235 -0.748,-1.882 -0.531,-1.431 -1.65,-2.469 -3.121,-2.762 -1.667,-0.331 -3.53,0.318 -4.489,1.555 -0.94,1.138 -1.115,2.531 -0.467,3.883 0.964,2.333 2.3,4.842 3.852,7.292 -0.686,0.373 -1.274,0.766 -1.862,1.159 -1.607,0.904 -2.802,1.787 -3.801,2.71 -0.373,0.334 -0.725,0.57 -1.098,0.904 -0.372,0.333 -0.666,0.785 -0.861,1.256 -0.157,0.274 -0.235,0.667 -0.195,0.981 -0.018,1.627 1.376,3.332 3.142,3.683 1.177,0.234 2.274,-0.159 3.156,-1.004 1.528,-1.531 3.606,-2.749 5.683,-3.967 1.964,2.429 4.045,4.781 6.342,7.073 0.609,0.528 1.237,0.959 1.923,1.096 1.472,0.292 2.942,-0.435 3.842,-1.887 0.822,-1.57 0.683,-3.433 -0.574,-4.804 z m -0.721,4.138 c -0.587,0.903 -1.508,1.434 -2.293,1.278 -0.392,-0.078 -0.844,-0.372 -1.197,-0.646 -2.395,-2.312 -4.653,-4.8 -6.578,-7.426 l -0.432,-0.392 -0.568,0.295 c -2.293,1.277 -4.606,2.653 -6.389,4.439 -0.646,0.688 -1.47,0.728 -1.96,0.63 -1.079,-0.214 -2.081,-1.331 -1.984,-2.332 l 0.059,-0.294 0.039,-0.196 c 0.058,-0.294 0.313,-0.549 0.568,-0.805 0.372,-0.333 0.627,-0.589 0.999,-0.922 0.999,-0.923 2.077,-1.729 3.665,-2.534 0.823,-0.55 1.626,-1.002 2.547,-1.533 l 0.588,-0.393 -0.393,-0.588 c -1.63,-2.567 -3.045,-5.193 -4.087,-7.644 -0.472,-1.215 -0.12,-1.961 0.291,-2.491 0.686,-0.883 1.999,-1.335 3.176,-1.101 0.687,0.136 1.629,0.527 2.081,1.841 0.275,0.666 0.531,1.431 0.806,2.097 l 0.06,0.216 c 0.903,1.097 1.865,2.41 2.985,3.958 l 0.393,0.588 1.842,-1.061 c 0.686,-0.373 1.392,-0.845 2.078,-1.218 1.646,-1.1 3.018,-1.847 4.253,-2.417 1.47,-0.727 3.197,0.33 3.434,1.703 0.098,0.529 -0.058,1.314 -0.979,1.844 -1.509,0.924 -3.097,1.729 -4.606,2.653 -1.039,0.609 -1.96,1.139 -2.999,1.749 l -0.686,0.373 0.393,0.588 c 1.317,2.097 2.888,4.448 4.714,6.545 0.805,1.078 0.65,2.372 0.18,3.196 z"
     fill="#3f92d1"
     id="path1034" />
  <defs
     id="defs1039">
    <clipPath
       id="clip0">
      <rect
         width="460.79999"
         height="274"
         fill="#ffffff"
         transform="rotate(11.2475,22.696587,275.02879)"
         id="rect1036"
         x="0"
         y="0" />
    </clipPath>
  </defs>
</svg>
