<svg width="744" height="675" viewBox="0 0 744 675" fill="none" xmlns="http://www.w3.org/2000/svg">
<path fill-rule="evenodd" clip-rule="evenodd" d="M244.439 529.976C194.603 498.711 133.281 480.292 106.511 426.926C77.7737 369.638 61.037 292.217 96.289 234.636C131.59 176.975 213.166 182.949 273.235 154.594C314.554 135.091 348.736 102.477 392.95 94.603C441.595 85.94 490.119 89.7874 534.49 108.068C587.34 129.842 651.108 152.048 668.109 207.967C685.1 263.85 639.023 321.048 616.37 377.374C595.867 428.354 581.174 481.564 542.385 520.569C499.958 563.233 450.6 579.517 392.95 581.337C335.784 583.141 291.814 559.697 244.439 529.976Z" fill="#FBCFD8"/>
<g clip-path="url(#clip0)">
<path opacity="0.2" d="M429.042 562.677L514.929 515.799C521.836 511.726 521.023 504.599 512.898 499.915L366.851 416.42C358.726 411.736 346.539 411.329 339.429 415.198L253.542 462.076C246.635 466.149 247.448 473.276 255.573 477.96L401.62 561.455C409.745 566.343 421.932 566.75 429.042 562.677Z" fill="#92B4D1"/>
<path d="M414.62 554.124L280.151 476.331C264.917 467.574 252.729 443.951 252.729 423.587V64.1509C252.729 53.7649 244.198 51.5248 249.479 47.8592C249.682 47.6555 261.463 42.3607 261.667 42.1571C267.151 40.1206 273.042 39.1024 280.151 43.1753L414.62 120.968C429.854 129.725 442.042 153.348 442.042 173.713V532.945C442.042 543.738 438.588 551.476 433.104 554.938C432.698 555.142 418.479 561.862 418.073 562.066C413.198 563.899 421.323 557.789 414.62 554.124Z" fill="#516372"/>
<path d="M404.057 558.808L269.588 481.015C254.354 472.258 242.167 448.635 242.167 428.27V69.0384C242.167 48.6738 254.354 39.5097 269.588 48.2665L404.057 126.059C419.291 134.816 431.479 158.439 431.479 178.804V538.036C431.682 558.197 419.291 567.564 404.057 558.808Z" fill="white"/>
<path d="M401.823 560.03L267.354 482.237C252.12 473.48 239.729 449.857 239.729 429.492V70.2603C239.729 50.0993 252.12 40.7316 267.151 49.4884L401.62 127.281C416.854 136.038 429.042 159.661 429.042 180.026V539.258C429.245 559.622 416.854 568.99 401.823 560.03Z" fill="#6A737B"/>
<path d="M410.963 556.16C408.323 556.16 405.479 555.346 402.432 553.513L268.573 476.127C255.979 468.796 245.823 449.042 245.823 431.936V72.2967C245.823 60.8925 250.495 53.3576 258.01 53.3576C260.651 53.3576 263.495 54.1722 266.542 56.005L400.401 133.391C412.995 140.722 423.354 160.476 423.354 177.582V537.425C423.151 548.829 418.479 556.16 410.963 556.16Z" fill="#B0BCC8"/>
<path d="M248.87 434.176V76.3697C248.87 61.5035 257.807 54.5795 268.979 61.0962L399.995 136.853C411.166 143.369 420.104 160.679 420.104 175.545V533.352C420.104 548.218 411.166 555.142 399.995 548.625L268.979 472.869C257.807 466.352 248.87 449.042 248.87 434.176Z" fill="#A5A9AD"/>
<path d="M251.51 432.14L417.463 528.261V222.384L251.51 126.467V432.14Z" fill="#F5FBFF"/>
<path d="M388.213 156.199L404.87 165.77C405.479 166.178 406.088 165.77 406.088 165.159C406.088 164.345 405.479 163.53 404.87 163.123L388.213 153.552C387.604 153.144 386.995 153.552 386.995 154.163C387.198 154.977 387.604 155.792 388.213 156.199ZM404.87 169.232L388.213 159.661C387.604 159.254 386.995 159.661 386.995 160.272C386.995 161.086 387.604 161.901 388.213 162.308L404.87 171.88C405.479 172.287 406.088 171.88 406.088 171.269C406.088 170.454 405.479 169.436 404.87 169.232ZM404.87 175.138L388.213 165.567C387.604 165.159 386.995 165.567 386.995 166.178C386.995 166.992 387.604 167.807 388.213 168.214L404.87 177.785C405.479 178.193 406.088 177.785 406.088 177.175C406.088 176.36 405.479 175.545 404.87 175.138Z" fill="white"/>
<path d="M286.448 98.7707C286.448 100.604 285.229 101.214 283.604 100.4C281.979 99.5853 280.76 97.3452 280.76 95.716C280.76 93.8832 281.979 93.2723 283.604 94.0869C285.229 94.9014 286.448 96.9379 286.448 98.7707Z" fill="white"/>
<path d="M278.12 93.8832C278.12 95.716 276.901 96.327 275.276 95.5124C273.651 94.6978 272.432 92.4577 272.432 90.8285C272.432 88.9957 273.651 88.3848 275.276 89.1993C276.901 90.0139 278.12 92.0504 278.12 93.8832Z" fill="white"/>
<path d="M269.792 88.9957C269.792 90.8285 268.573 91.4395 266.948 90.6249C265.323 89.8103 264.104 87.5702 264.104 85.941C264.104 84.1082 265.323 83.4973 266.948 84.3119C268.573 85.1264 269.792 87.1629 269.792 88.9957Z" fill="white"/>
<path d="M340.276 372.268C340.276 356.791 329.307 337.851 315.901 329.909C309.401 326.244 303.51 325.633 299.042 327.873L292.948 331.335L294.776 334.389C293.963 336.63 293.557 339.481 293.557 342.535C293.557 358.012 304.526 376.952 317.932 384.894C320.776 386.523 323.416 387.541 325.854 387.948L327.682 391.003L332.557 388.356C337.229 385.912 340.276 380.413 340.276 372.268Z" fill="#C5C5C5"/>
<path d="M328.042 390.787C337.533 385.224 337.424 367.334 327.799 350.827C318.174 334.321 302.677 325.45 293.186 331.013C283.695 336.575 283.804 354.466 293.429 370.972C303.054 387.479 318.551 396.35 328.042 390.787Z" fill="white"/>
<path d="M282.588 375.933C282.182 375.933 281.979 375.73 281.776 375.322C281.167 374.1 280.557 372.879 279.948 371.657C279.745 371.249 279.948 370.638 280.354 370.231C280.76 370.028 281.37 370.231 281.776 370.638C282.385 371.86 282.995 373.082 283.604 374.304C283.807 374.711 283.604 375.322 283.198 375.73C282.792 375.933 282.792 375.933 282.588 375.933ZM278.323 366.769C277.917 366.769 277.51 366.566 277.307 366.158C276.901 364.936 276.292 363.511 276.088 362.289C275.885 361.678 276.292 361.271 276.698 361.067C277.307 360.863 277.713 361.271 277.917 361.678C278.323 362.9 278.729 364.122 279.135 365.547C279.338 366.158 279.135 366.566 278.526 366.769C278.526 366.769 278.526 366.769 278.323 366.769ZM275.682 356.994C275.276 356.994 274.87 356.587 274.667 356.18C274.463 354.754 274.26 353.329 274.057 352.107C274.057 351.496 274.463 351.088 274.87 351.088C275.479 351.088 275.885 351.496 275.885 351.903C276.088 353.125 276.292 354.55 276.495 355.772C276.698 356.18 276.292 356.791 275.682 356.994Z" fill="#A8CFF0"/>
<path d="M327.673 391.11C337.164 385.547 337.055 367.656 327.43 351.15C317.805 334.644 302.308 325.772 292.817 331.335C283.326 336.898 283.435 354.789 293.06 371.295C302.685 387.801 318.182 396.673 327.673 391.11Z" fill="#3F92D1"/>
<path d="M309.401 341.721C301.073 336.833 294.37 340.703 294.37 350.274C294.37 359.438 300.463 370.435 308.385 375.526V384.079L314.885 378.173C320.573 378.988 324.432 374.915 324.432 367.584C324.432 358.012 317.729 346.405 309.401 341.721ZM303.307 357.198C302.495 357.809 300.87 356.791 300.057 355.365C299.245 353.736 299.245 352.107 300.057 351.496C300.87 350.885 302.495 351.903 303.307 353.329C304.323 354.958 304.323 356.791 303.307 357.198ZM311.026 361.678C310.213 362.289 308.588 361.271 307.776 359.845C306.963 358.216 306.963 356.587 307.776 355.976C308.588 355.365 310.213 356.383 311.026 357.809C311.838 359.438 311.838 361.067 311.026 361.678ZM318.542 365.955C317.729 366.566 316.104 365.547 315.292 364.122C314.479 362.493 314.479 360.863 315.292 360.253C316.104 359.642 317.729 360.66 318.542 362.085C319.557 363.918 319.557 365.547 318.542 365.955Z" fill="white"/>
<path d="M391.057 278.183C391.057 262.706 380.088 243.767 366.682 235.825C360.182 232.159 354.292 231.548 349.823 233.788L343.729 237.25L345.557 240.305C344.745 242.545 344.338 245.396 344.338 248.451C344.338 263.928 355.307 282.867 368.713 290.809C371.557 292.438 374.198 293.457 376.635 293.864L378.463 296.919L383.338 294.271C388.01 292.031 391.057 286.329 391.057 278.183Z" fill="#C5C5C5"/>
<path d="M378.881 296.879C388.372 291.317 388.263 273.426 378.638 256.92C369.012 240.413 353.516 231.542 344.025 237.105C334.534 242.668 334.642 260.558 344.268 277.065C353.893 293.571 369.389 302.442 378.881 296.879Z" fill="white"/>
<path d="M371.963 310.563C370.542 310.563 369.12 310.359 367.698 310.156C367.088 310.156 366.682 309.545 366.885 308.934C366.885 308.323 367.495 307.915 368.104 308.119C369.323 308.323 370.745 308.323 371.963 308.323C372.573 308.323 372.979 308.73 372.979 309.341C372.979 309.952 372.37 310.563 371.963 310.563ZM362.01 308.934C361.807 308.934 361.807 308.934 361.604 308.934C360.385 308.526 358.963 307.915 357.745 307.305C357.338 307.101 356.932 306.49 357.338 305.879C357.542 305.472 358.151 305.064 358.76 305.472C359.979 306.083 361.198 306.49 362.417 307.101C363.026 307.305 363.229 307.915 363.026 308.323C362.823 308.526 362.417 308.934 362.01 308.934ZM352.87 304.25C352.667 304.25 352.463 304.25 352.26 304.046C351.042 303.232 350.026 302.417 349.01 301.602C348.604 301.195 348.401 300.584 348.807 300.177C349.213 299.77 349.823 299.566 350.229 299.973C351.245 300.788 352.463 301.602 353.479 302.417C353.885 302.824 354.088 303.435 353.682 303.843C353.479 304.046 353.276 304.25 352.87 304.25ZM345.151 297.733C344.948 297.733 344.542 297.733 344.338 297.529C343.323 296.511 342.51 295.493 341.495 294.475C341.088 294.068 341.088 293.457 341.495 293.049C341.901 292.642 342.51 292.642 342.917 293.049C343.729 294.068 344.745 295.086 345.76 295.9C346.167 296.308 346.167 296.919 345.76 297.326C345.557 297.733 345.354 297.733 345.151 297.733ZM338.448 289.995C338.042 289.995 337.838 289.791 337.635 289.587C336.823 288.569 336.01 287.347 335.198 286.125C334.792 285.718 334.995 285.107 335.401 284.7C335.807 284.496 336.417 284.496 336.823 284.903C337.635 286.125 338.245 287.144 339.057 288.162C339.463 288.569 339.26 289.18 338.854 289.587C338.854 289.995 338.651 289.995 338.448 289.995ZM332.963 281.441C332.557 281.441 332.151 281.238 332.151 280.83C331.542 279.609 330.932 278.387 330.323 277.165C330.12 276.554 330.323 276.147 330.729 275.739C331.338 275.536 331.745 275.739 332.151 276.147C332.76 277.369 333.37 278.59 333.979 279.812C334.182 280.22 333.979 280.83 333.573 281.238C333.37 281.441 333.167 281.441 332.963 281.441ZM328.901 272.074C328.495 272.074 328.088 271.87 327.885 271.463C327.479 270.241 327.073 268.815 326.667 267.593C326.463 266.983 326.87 266.575 327.276 266.372C327.885 266.168 328.292 266.575 328.495 266.983C328.901 268.204 329.307 269.63 329.713 270.852C329.917 271.463 329.713 271.87 329.104 272.074C329.104 272.074 329.104 272.074 328.901 272.074ZM326.26 262.299C325.854 262.299 325.448 261.891 325.245 261.484C325.042 260.059 324.838 258.633 324.635 257.411C324.635 256.8 325.042 256.393 325.651 256.393C326.26 256.393 326.667 256.8 326.667 257.411C326.87 258.633 326.87 260.059 327.276 261.28C327.276 261.688 327.073 262.299 326.26 262.299C326.463 262.299 326.26 262.299 326.26 262.299Z" fill="#A8CFF0"/>
<path d="M378.409 297.026C387.9 291.463 387.792 273.572 378.166 257.066C368.541 240.56 353.045 231.688 343.553 237.251C334.062 242.814 334.171 260.704 343.796 277.211C353.421 293.717 368.918 302.589 378.409 297.026Z" fill="#3F92D1"/>
<path d="M360.792 273.907C364.651 276.147 367.698 274.314 367.698 269.834V257.411C367.698 252.931 364.448 247.433 360.792 245.396C356.932 243.156 353.885 244.989 353.885 249.469V261.891C353.682 266.372 356.932 271.666 360.792 273.907Z" fill="white"/>
<path d="M370.948 267.39C370.338 266.983 369.729 267.39 369.729 268.001V271.055C369.729 276.758 365.666 279.201 360.588 276.147C355.51 273.296 351.448 266.168 351.448 260.466V257.411C351.448 256.597 350.838 255.782 350.229 255.375C349.62 254.967 349.01 255.375 349.01 255.986V259.04C349.01 265.557 353.276 273.499 358.76 277.572V283.478C357.338 283.274 356.526 284.089 356.526 285.718L364.651 290.402C364.651 288.773 363.635 286.94 362.417 285.514V279.609C367.901 281.849 372.166 278.794 372.166 272.277V269.223C372.166 268.612 371.557 267.797 370.948 267.39Z" fill="white"/>
<path d="M326.87 243.563L301.682 205.889L300.463 207.314L301.682 219.94L267.151 199.983L265.932 201.408L266.948 217.904L301.479 237.861V251.913L325.651 244.785L326.87 243.563Z" fill="#0091C8"/>
<path d="M325.651 244.785L300.463 207.111V221.162L265.932 201.205V219.126L300.463 239.083V253.135L325.651 244.785Z" fill="#41B4E6"/>
<g opacity="0.5">
<path opacity="0.5" d="M325.448 244.989L325.651 244.785L300.463 207.111V207.721L325.448 244.989Z" fill="white"/>
<path opacity="0.5" d="M300.463 221.569V221.162L265.932 201.205V201.612L300.463 221.569Z" fill="white"/>
</g>
<path d="M344.948 377.359L343.932 378.784L368.917 416.052L370.135 415.033V400.982L403.651 422.365L404.87 421.143V403.018L370.338 383.061V369.009L344.948 377.359Z" fill="#0091C8"/>
<path d="M343.729 378.581L368.917 416.255V402.204L403.448 422.161V404.24L368.917 384.283V370.231L343.729 378.581Z" fill="#41B4E6"/>
<g opacity="0.5">
<path opacity="0.5" d="M368.917 384.283V370.231L343.729 378.581L343.932 378.988L368.917 370.639V384.69L403.448 404.647V422.161V404.24L368.917 384.283Z" fill="white"/>
</g>
<path d="M314.885 433.362C314.885 444.562 322.807 458.41 332.557 464.112C335.198 465.741 337.838 466.556 340.276 466.556C345.76 466.556 349.213 462.076 349.213 454.744C349.213 443.544 341.292 429.696 331.542 423.994C328.901 422.365 326.26 421.55 323.823 421.55C318.338 421.55 314.885 426.03 314.885 433.362Z" fill="white"/>
<path d="M332.76 465.334C322.401 459.225 313.057 443.544 313.057 431.529C313.057 422.976 319.963 417.884 326.87 417.884C329.713 417.884 332.557 418.699 335.604 420.532C345.963 426.641 354.495 441.304 354.495 453.115C354.495 461.668 347.385 468.389 340.682 468.389C337.838 468.389 335.807 466.963 332.76 465.334ZM316.104 432.547C316.104 443.747 324.026 457.595 333.776 463.298C336.417 464.927 339.057 465.741 341.495 465.741C346.979 465.741 350.432 461.261 350.432 453.93C350.432 442.729 342.51 428.881 332.76 423.179C330.12 421.55 327.479 420.735 325.042 420.735C319.557 420.735 316.104 425.216 316.104 432.547Z" fill="#C5C5C5"/>
<path d="M331.745 465.945C321.385 459.836 312.854 445.173 312.854 433.362C312.854 424.808 317.323 419.31 324.026 419.31C326.87 419.31 329.713 420.125 332.76 421.957C343.12 428.067 351.651 442.729 351.651 454.541C351.651 463.094 347.182 468.592 340.479 468.592C337.838 468.592 334.792 467.778 331.745 465.945ZM315.088 433.362C315.088 444.562 323.01 458.41 332.76 464.112C335.401 465.741 338.042 466.556 340.479 466.556C345.963 466.556 349.417 462.076 349.417 454.744C349.417 443.544 341.495 429.696 331.745 423.994C329.104 422.365 326.463 421.55 324.026 421.55C318.542 421.346 315.088 426.03 315.088 433.362Z" fill="white"/>
<path d="M331.542 466.149C321.182 460.039 312.651 445.377 312.651 433.565C312.651 425.012 317.12 419.514 323.823 419.514C326.667 419.514 329.51 420.328 332.557 422.161C342.917 428.27 351.448 442.933 351.448 454.744C351.448 463.297 346.979 468.796 340.276 468.796C337.432 468.796 334.588 467.981 331.542 466.149ZM314.885 433.361C314.885 444.562 322.807 458.41 332.557 464.112C335.198 465.741 337.838 466.556 340.276 466.556C345.76 466.556 349.213 462.076 349.213 454.744C349.213 443.544 341.292 429.696 331.542 423.994C328.901 422.365 326.26 421.55 323.823 421.55C318.338 421.55 314.885 426.03 314.885 433.361Z" fill="#F47892"/>
<path d="M322.401 439.064L329.307 454.133L342.307 440.489C342.713 440.082 342.51 438.86 341.698 438.045L337.838 434.38C337.229 433.972 336.823 433.769 336.416 434.176L329.51 445.988L326.463 438.656C326.26 438.045 325.651 437.434 325.041 437.434L323.01 437.027C322.401 437.434 321.995 438.249 322.401 439.064Z" fill="#C5C5C5"/>
<path d="M321.792 439.471L328.698 454.541L341.698 440.896C342.104 440.489 341.901 439.267 341.088 438.453L337.229 434.787C336.62 434.38 336.213 434.176 335.807 434.583L328.901 446.395L325.854 439.064C325.651 438.453 325.042 437.842 324.432 437.842L322.401 437.434C321.588 437.638 321.385 438.656 321.792 439.471Z" fill="#F47892"/>
<path opacity="0.3" d="M535.043 370.531C529.143 371.931 524.743 377.431 520.143 381.031C519.843 381.331 519.443 381.531 519.143 381.831C515.843 378.231 512.243 374.831 508.943 371.231C506.143 368.231 501.243 372.631 503.643 375.931C506.443 379.731 510.043 382.931 513.543 386.331C509.243 389.731 504.943 393.331 500.943 397.031C498.943 397.931 500.343 402.131 502.943 400.631C508.043 397.631 512.943 394.131 517.743 390.531C522.143 395.531 526.743 400.431 532.943 403.131C535.043 404.031 536.943 401.431 535.143 399.831C530.743 395.831 527.043 391.131 523.243 386.531C527.943 383.031 532.243 379.331 537.543 376.631C540.943 374.831 538.643 369.731 535.043 370.531Z" fill="white"/>
<path opacity="0.3" d="M510.513 153.592C506.494 154.545 503.497 158.291 500.364 160.744C500.159 160.948 499.887 161.084 499.682 161.288C497.435 158.836 494.983 156.52 492.735 154.068C490.828 152.025 487.49 155.022 489.125 157.27C491.032 159.858 493.484 162.038 495.868 164.354C492.939 166.67 490.01 169.122 487.286 171.642C485.923 172.255 486.877 175.116 488.648 174.094C492.122 172.051 495.459 169.667 498.729 167.214C501.726 170.62 504.859 173.958 509.082 175.797C510.513 176.41 511.807 174.639 510.581 173.549C507.584 170.825 505.063 167.623 502.475 164.49C505.677 162.106 508.605 159.586 512.216 157.747C514.531 156.52 512.965 153.047 510.513 153.592Z" fill="white"/>
</g>
<path d="M190.41 378.098C211.673 378.098 228.91 360.861 228.91 339.598C228.91 318.335 211.673 301.098 190.41 301.098C169.147 301.098 151.91 318.335 151.91 339.598C151.91 360.861 169.147 378.098 190.41 378.098Z" fill="#41B4E6" stroke="#ECEFF1" stroke-width="7"/>
<g clip-path="url(#clip1)">
<path d="M190.41 374.598C209.74 374.598 225.41 358.928 225.41 339.598C225.41 320.268 209.74 304.598 190.41 304.598C171.08 304.598 155.41 320.268 155.41 339.598C155.41 358.928 171.08 374.598 190.41 374.598Z" fill="#F0F0F0"/>
<path d="M223.233 351.772C224.64 347.98 225.41 343.879 225.41 339.598C225.41 335.317 224.64 331.216 223.233 327.424H157.587C156.18 331.216 155.41 335.317 155.41 339.598C155.41 343.879 156.18 347.98 157.587 351.772L190.41 354.815L223.233 351.772Z" fill="#0052B4"/>
<path d="M190.41 374.598C205.458 374.598 218.287 365.1 223.233 351.772H157.587C162.532 365.1 175.361 374.598 190.41 374.598Z" fill="#D80027"/>
</g>
<path d="M130.719 465.788C151.982 465.788 169.219 448.551 169.219 427.288C169.219 406.025 151.982 388.788 130.719 388.788C109.456 388.788 92.2192 406.025 92.2192 427.288C92.2192 448.551 109.456 465.788 130.719 465.788Z" fill="#41B4E6" stroke="#ECEFF1" stroke-width="7"/>
<g clip-path="url(#clip2)">
<path d="M130.719 462.288C150.049 462.288 165.719 446.618 165.719 427.288C165.719 407.958 150.049 392.288 130.719 392.288C111.389 392.288 95.7192 407.958 95.7192 427.288C95.7192 446.618 111.389 462.288 130.719 462.288Z" fill="#F0F0F0"/>
<path d="M102.954 405.98C100.205 409.557 98.1321 413.679 96.925 418.158H115.133L102.954 405.98Z" fill="#0052B4"/>
<path d="M164.514 418.158C163.306 413.679 161.233 409.557 158.484 405.98L146.306 418.158H164.514Z" fill="#0052B4"/>
<path d="M96.925 436.419C98.1323 440.898 100.205 445.02 102.954 448.597L115.133 436.419H96.925Z" fill="#0052B4"/>
<path d="M152.028 399.524C148.451 396.774 144.328 394.701 139.85 393.494V411.702L152.028 399.524Z" fill="#0052B4"/>
<path d="M109.411 455.053C112.988 457.802 117.11 459.875 121.589 461.083V442.875L109.411 455.053Z" fill="#0052B4"/>
<path d="M121.589 393.494C117.11 394.701 112.987 396.774 109.411 399.523L121.589 411.702V393.494Z" fill="#0052B4"/>
<path d="M139.85 461.083C144.328 459.875 148.451 457.802 152.028 455.053L139.85 442.875V461.083Z" fill="#0052B4"/>
<path d="M146.306 436.419L158.484 448.597C161.233 445.02 163.306 440.898 164.514 436.419H146.306Z" fill="#0052B4"/>
<path d="M165.423 422.723H135.285H135.285V392.585C133.79 392.39 132.266 392.288 130.719 392.288C129.172 392.288 127.648 392.39 126.154 392.585V422.723V422.723H96.0155C95.821 424.217 95.7192 425.741 95.7192 427.288C95.7192 428.836 95.821 430.359 96.0155 431.853H126.154H126.154V461.992C127.648 462.187 129.172 462.288 130.719 462.288C132.266 462.288 133.79 462.187 135.284 461.992V431.854V431.854H165.423C165.618 430.359 165.719 428.836 165.719 427.288C165.719 425.741 165.618 424.217 165.423 422.723Z" fill="#D80027"/>
<path d="M139.85 436.419L155.468 452.037C156.186 451.319 156.872 450.568 157.525 449.79L144.154 436.419H139.85V436.419Z" fill="#D80027"/>
<path d="M121.589 436.419H121.589L105.97 452.037C106.689 452.755 107.439 453.441 108.217 454.094L121.589 440.723V436.419Z" fill="#D80027"/>
<path d="M121.589 418.158V418.158L105.97 402.539C105.252 403.257 104.567 404.008 103.913 404.786L117.285 418.158H121.589V418.158Z" fill="#D80027"/>
<path d="M139.85 418.158L155.468 402.54C154.75 401.821 153.999 401.136 153.221 400.482L139.85 413.854V418.158Z" fill="#D80027"/>
</g>
<defs>
<clipPath id="clip0">
<rect width="296" height="525" fill="white" transform="translate(240.171 40.7525)"/>
</clipPath>
<clipPath id="clip1">
<rect width="70" height="70" fill="white" transform="translate(155.41 304.598)"/>
</clipPath>
<clipPath id="clip2">
<rect width="70" height="70" fill="white" transform="translate(95.7192 392.288)"/>
</clipPath>
</defs>
</svg>
