<?xml version="1.0" encoding="UTF-8" standalone="no"?>
<svg
   xmlns:dc="http://purl.org/dc/elements/1.1/"
   xmlns:cc="http://creativecommons.org/ns#"
   xmlns:rdf="http://www.w3.org/1999/02/22-rdf-syntax-ns#"
   xmlns:svg="http://www.w3.org/2000/svg"
   xmlns="http://www.w3.org/2000/svg"
   xmlns:sodipodi="http://sodipodi.sourceforge.net/DTD/sodipodi-0.dtd"
   xmlns:inkscape="http://www.inkscape.org/namespaces/inkscape"
   width="18.999512"
   height="18.999952"
   viewBox="0 0 18.999512 18.999952"
   fill="none"
   version="1.1"
   id="svg899"
   sodipodi:docname="phone-ringing.svg"
   inkscape:version="1.0.2-2 (e86c870879, 2021-01-15)">
  <metadata
     id="metadata903">
    <rdf:RDF>
      <cc:Work
         rdf:about="">
        <dc:format>image/svg+xml</dc:format>
        <dc:type
           rdf:resource="http://purl.org/dc/dcmitype/StillImage" />
        <dc:title></dc:title>
      </cc:Work>
    </rdf:RDF>
  </metadata>
  <sodipodi:namedview
     pagecolor="#ffffff"
     bordercolor="#666666"
     borderopacity="1"
     objecttolerance="10"
     gridtolerance="10"
     guidetolerance="10"
     inkscape:pageopacity="0"
     inkscape:pageshadow="2"
     inkscape:window-width="2492"
     inkscape:window-height="1058"
     id="namedview901"
     showgrid="false"
     fit-margin-top="0"
     fit-margin-left="0"
     fit-margin-right="0"
     fit-margin-bottom="0"
     inkscape:zoom="31.466252"
     inkscape:cx="9.5528105"
     inkscape:cy="9.3318767"
     inkscape:window-x="-8"
     inkscape:window-y="-8"
     inkscape:window-maximized="1"
     inkscape:current-layer="svg899" />
  <g
     clip-path="url(#clip0)"
     id="g892"
     transform="translate(-0.20129394,-0.514648)">
    <path
       d="m 13.8565,19.5146 c -0.6133,0 -1.2214,-0.1084 -1.8161,-0.3244 C 9.42069,18.2385 6.98901,16.6885 5.00819,14.7077 3.02737,12.727 1.47738,10.2952 0.525749,7.6755 0.219943,6.8336 0.129697,5.96453 0.257607,5.09235 0.377429,4.27538 0.693884,3.48228 1.1728,2.79875 1.65383,2.11222 2.29513,1.5412 3.02734,1.14745 3.80816,0.727573 4.66042,0.514648 5.56051,0.514648 c 0.27994,0 0.52188,0.195596 0.58055,0.469303 L 7.07298,5.33295 C 7.11518,5.52989 7.05465,5.7348 6.91227,5.87722 L 5.31986,7.46959 C 6.82206,10.4563 9.2596,12.8938 12.2463,14.396 l 1.5923,-1.5924 c 0.1424,-0.1424 0.3474,-0.2028 0.5443,-0.1607 l 4.349,0.9319 c 0.2737,0.0587 0.4693,0.3006 0.4693,0.5805 0,0.9001 -0.2129,1.7524 -0.6328,2.5333 -0.3938,0.7322 -0.9648,1.3735 -1.6513,1.8545 -0.6835,0.4789 -1.4766,0.7954 -2.2936,0.9152 -0.256,0.0376 -0.512,0.0563 -0.767,0.0563 z M 5.08612,1.72808 C 3.89885,1.85914 2.84506,2.48144 2.14528,3.4802 1.35837,4.60327 1.17488,5.98461 1.64184,7.2701 c 1.82957,5.0365 5.76749,8.9744 10.80396,10.804 1.2855,0.467 2.6669,0.2835 3.7899,-0.5035 0.9988,-0.6997 1.6211,-1.7535 1.7522,-2.9408 l -3.5379,-0.7581 -1.6631,1.663 c -0.1769,0.177 -0.4458,0.224 -0.6723,0.1176 C 8.58235,13.9928 5.72311,11.1336 4.06365,7.60128 3.95726,7.37481 4.00424,7.10593 4.18121,6.929 L 5.84423,5.26598 Z"
       fill="#3f92d1"
       id="path884" />
    <path
       d="m 18.607,10.608 c -0.3279,0 -0.5937,-0.2659 -0.5937,-0.5937 0,-4.58338 -3.7288,-8.3122 -8.31215,-8.3122 -0.32789,0 -0.59373,-0.26584 -0.59373,-0.59373 0,-0.327881 0.26584,-0.593722 0.59373,-0.593722 2.53745,0 4.92305,0.988112 6.71725,2.782352 1.7942,1.79423 2.7824,4.17979 2.7824,6.7173 0,0.3278 -0.2658,0.5937 -0.5938,0.5937 z"
       fill="#3f92d1"
       id="path886" />
    <path
       d="m 16.2321,10.6081 c -0.3279,0 -0.5937,-0.2659 -0.5937,-0.5937 0,-3.27385 -2.6634,-5.9373 -5.93725,-5.9373 -0.32789,0 -0.59373,-0.26584 -0.59373,-0.59373 0,-0.32788 0.26584,-0.59372 0.59373,-0.59372 3.92855,0 7.12475,3.19614 7.12475,7.12475 0,0.3278 -0.2658,0.5937 -0.5938,0.5937 z"
       fill="#3f92d1"
       id="path888" />
    <path
       d="m 13.8572,10.6082 c -0.3279,0 -0.5937,-0.2659 -0.5937,-0.5937 0,-1.96435 -1.598,-3.5624 -3.56235,-3.5624 -0.32789,0 -0.59373,-0.26584 -0.59373,-0.59373 0,-0.32788 0.26584,-0.59372 0.59373,-0.59372 2.61905,0 4.74985,2.13073 4.74985,4.74985 0,0.3278 -0.2659,0.5937 -0.5938,0.5937 z"
       fill="#3f92d1"
       id="path890" />
  </g>
  <defs
     id="defs897">
    <clipPath
       id="clip0">
      <rect
         width="19"
         height="19"
         fill="#ffffff"
         transform="translate(0.200806,0.514648)"
         id="rect894"
         x="0"
         y="0" />
    </clipPath>
  </defs>
</svg>
