<?xml version="1.0" encoding="UTF-8" standalone="no"?>
<svg
   xmlns:dc="http://purl.org/dc/elements/1.1/"
   xmlns:cc="http://creativecommons.org/ns#"
   xmlns:rdf="http://www.w3.org/1999/02/22-rdf-syntax-ns#"
   xmlns:svg="http://www.w3.org/2000/svg"
   xmlns="http://www.w3.org/2000/svg"
   xmlns:sodipodi="http://sodipodi.sourceforge.net/DTD/sodipodi-0.dtd"
   xmlns:inkscape="http://www.inkscape.org/namespaces/inkscape"
   width="16.706003mm"
   height="16.706003mm"
   viewBox="0 0 16.706003 16.706003"
   version="1.1"
   id="svg8"
   inkscape:version="1.0.2-2 (e86c870879, 2021-01-15)">
  <defs
     id="defs2" />
  <sodipodi:namedview
     id="base"
     pagecolor="#ffffff"
     bordercolor="#666666"
     borderopacity="1.0"
     inkscape:pageopacity="0.0"
     inkscape:pageshadow="2"
     inkscape:zoom="0.35"
     inkscape:cx="77.284689"
     inkscape:cy="417.2847"
     inkscape:document-units="mm"
     inkscape:current-layer="layer1"
     inkscape:document-rotation="0"
     showgrid="false"
     fit-margin-top="0"
     fit-margin-left="0"
     fit-margin-right="0"
     fit-margin-bottom="0"
     inkscape:window-width="1500"
     inkscape:window-height="1062"
     inkscape:window-x="200"
     inkscape:window-y="0"
     inkscape:window-maximized="0" />
  <metadata
     id="metadata5">
    <rdf:RDF>
      <cc:Work
         rdf:about="">
        <dc:format>image/svg+xml</dc:format>
        <dc:type
           rdf:resource="http://purl.org/dc/dcmitype/StillImage" />
        <dc:title></dc:title>
      </cc:Work>
    </rdf:RDF>
  </metadata>
  <g
     inkscape:label="Слой 1"
     inkscape:groupmode="layer"
     id="layer1"
     transform="translate(-85.385093,-37.76009)">
    <g
       style="fill:none"
       id="g847"
       transform="matrix(0.26458333,0,0,0.26458333,85.379854,34.439437)">
      <circle
         cx="31.5902"
         cy="44.120899"
         r="31.5704"
         fill="#3f92d1"
         id="circle833" />
      <path
         d="m 26.1683,52.5607 c 0,-2.8515 0.3223,-5.0976 0.9668,-6.7383 0.6446,-1.6601 1.6895,-3.0957 3.1348,-4.3066 1.4453,-1.2109 2.5391,-2.3144 3.2812,-3.3105 0.7618,-1.0157 1.1426,-2.1289 1.1426,-3.3399 0,-2.9492 -1.2695,-4.4238 -3.8086,-4.4238 -1.1718,0 -2.1191,0.4297 -2.8418,1.2891 -0.7226,0.8593 -1.1035,2.0214 -1.1425,3.4863 h -9.9024 c 0.0391,-3.9063 1.2695,-6.9434 3.6914,-9.1113 2.4219,-2.1875 5.8203,-3.2813 10.1953,-3.2813 4.3555,0 7.7246,1.0059 10.1075,3.0176 2.4023,2.0117 3.6035,4.873 3.6035,8.584 0,1.6211 -0.3223,3.0957 -0.9668,4.4238 -0.6446,1.3281 -1.6797,2.6855 -3.1055,4.0723 l -3.3691,3.1347 c -0.9571,0.918 -1.6211,1.8653 -1.9922,2.8418 -0.3711,0.9571 -0.5762,2.1778 -0.6153,3.6621 z m -1.2011,8.9063 c 0,-1.4453 0.5175,-2.627 1.5527,-3.5449 1.0547,-0.9375 2.3633,-1.4063 3.9258,-1.4063 1.5625,0 2.8613,0.4688 3.8965,1.4063 1.0547,0.9179 1.582,2.0996 1.582,3.5449 0,1.4453 -0.5273,2.6367 -1.582,3.5742 -1.0352,0.918 -2.334,1.377 -3.8965,1.377 -1.5625,0 -2.8711,-0.459 -3.9258,-1.377 -1.0352,-0.9375 -1.5527,-2.1289 -1.5527,-3.5742 z"
         fill="#ffffff"
         id="path835" />
    </g>
  </g>
</svg>
